<svg width="400" height="300" viewBox="0 0 400 300" xmlns="http://www.w3.org/2000/svg">
  <defs>
    <linearGradient id="bg-gradient" x1="0%" y1="0%" x2="100%" y2="100%">
      <stop offset="0%" style="stop-color:#8b5cf6;stop-opacity:1" />
      <stop offset="50%" style="stop-color:#7c3aed;stop-opacity:1" />
      <stop offset="100%" style="stop-color:#5b21b6;stop-opacity:1" />
    </linearGradient>
    <linearGradient id="card-gradient" x1="0%" y1="0%" x2="100%" y2="100%">
      <stop offset="0%" style="stop-color:#1e293b;stop-opacity:0.9" />
      <stop offset="100%" style="stop-color:#0f172a;stop-opacity:0.9" />
    </linearGradient>
    <filter id="glow">
      <feGaussianBlur stdDeviation="2" result="coloredBlur"/>
      <feMerge> 
        <feMergeNode in="coloredBlur"/>
        <feMergeNode in="SourceGraphic"/>
      </feMerge>
    </filter>
  </defs>
  
  <!-- Background -->
  <rect width="400" height="300" fill="url(#bg-gradient)" rx="20"/>
  
  <!-- Main container -->
  <rect x="20" y="20" width="360" height="260" fill="url(#card-gradient)" rx="15" stroke="#8b5cf6" stroke-width="1" opacity="0.8"/>
  
  <!-- Header -->
  <text x="200" y="45" text-anchor="middle" fill="#8b5cf6" font-family="Arial, sans-serif" font-size="20" font-weight="bold">GENERADOR QR</text>
  <text x="200" y="65" text-anchor="middle" fill="#7c3aed" font-family="Arial, sans-serif" font-size="16" font-weight="bold">CODE</text>
  <text x="200" y="80" text-anchor="middle" fill="#5b21b6" font-family="Arial, sans-serif" font-size="12">QR Code Generator</text>
  
  <!-- QR Code icon (main) -->
  <g transform="translate(50, 90)" filter="url(#glow)">
    <!-- QR Code grid -->
    <rect x="5" y="5" width="20" height="20" fill="#1e293b" stroke="#8b5cf6" stroke-width="2" rx="2"/>
    
    <!-- Corner squares -->
    <rect x="7" y="7" width="4" height="4" fill="#8b5cf6"/>
    <rect x="19" y="7" width="4" height="4" fill="#8b5cf6"/>
    <rect x="7" y="19" width="4" height="4" fill="#8b5cf6"/>
    
    <!-- Data pattern -->
    <rect x="13" y="9" width="1" height="1" fill="#7c3aed"/>
    <rect x="15" y="9" width="1" height="1" fill="#7c3aed"/>
    <rect x="17" y="9" width="1" height="1" fill="#7c3aed"/>
    <rect x="9" y="11" width="1" height="1" fill="#7c3aed"/>
    <rect x="11" y="11" width="1" height="1" fill="#7c3aed"/>
    <rect x="15" y="11" width="1" height="1" fill="#7c3aed"/>
    <rect x="17" y="11" width="1" height="1" fill="#7c3aed"/>
    <rect x="21" y="11" width="1" height="1" fill="#7c3aed"/>
    <rect x="9" y="13" width="1" height="1" fill="#7c3aed"/>
    <rect x="13" y="13" width="1" height="1" fill="#7c3aed"/>
    <rect x="17" y="13" width="1" height="1" fill="#7c3aed"/>
    <rect x="19" y="13" width="1" height="1" fill="#7c3aed"/>
    <rect x="21" y="13" width="1" height="1" fill="#7c3aed"/>
    <rect x="11" y="15" width="1" height="1" fill="#7c3aed"/>
    <rect x="13" y="15" width="1" height="1" fill="#7c3aed"/>
    <rect x="15" y="15" width="1" height="1" fill="#7c3aed"/>
    <rect x="19" y="15" width="1" height="1" fill="#7c3aed"/>
    <rect x="21" y="15" width="1" height="1" fill="#7c3aed"/>
    <rect x="13" y="17" width="1" height="1" fill="#7c3aed"/>
    <rect x="15" y="17" width="1" height="1" fill="#7c3aed"/>
    <rect x="19" y="17" width="1" height="1" fill="#7c3aed"/>
    <rect x="21" y="17" width="1" height="1" fill="#7c3aed"/>
  </g>
  
  <!-- Flask logo -->
  <g transform="translate(120, 90)">
    <!-- Flask body -->
    <path d="M12 5 L18 5 L18 12 L22 20 L8 20 Z" fill="#22c55e" stroke="#16a34a" stroke-width="1"/>
    <!-- Flask neck -->
    <rect x="13" y="3" width="4" height="4" fill="#22c55e"/>
    <!-- Flask top -->
    <rect x="12" y="2" width="6" height="2" fill="#16a34a" rx="1"/>
    <!-- Liquid -->
    <path d="M10 18 L20 18 L18 12 L12 12 Z" fill="#8b5cf6" opacity="0.7"/>
  </g>
  
  <!-- Python logo -->
  <g transform="translate(190, 90)">
    <!-- Python snake -->
    <ellipse cx="15" cy="10" rx="8" ry="4" fill="#3776ab"/>
    <ellipse cx="15" cy="20" rx="8" ry="4" fill="#ffd43b"/>
    <!-- Eyes -->
    <circle cx="12" cy="9" r="1" fill="white"/>
    <circle cx="18" cy="9" r="1" fill="white"/>
  </g>
  
  <!-- Cloud/Deployment icon -->
  <g transform="translate(260, 90)">
    <!-- Cloud shape -->
    <ellipse cx="15" cy="18" rx="10" ry="4" fill="#64748b"/>
    <circle cx="10" cy="15" r="4" fill="#64748b"/>
    <circle cx="15" cy="12" r="5" fill="#64748b"/>
    <circle cx="20" cy="15" r="4" fill="#64748b"/>
  </g>
  
  <!-- Code/Programming icon -->
  <g transform="translate(330, 90)">
    <!-- Code brackets -->
    <path d="M8 10 L5 15 L8 20" fill="none" stroke="#22c55e" stroke-width="2" stroke-linecap="round"/>
    <path d="M22 10 L25 15 L22 20" fill="none" stroke="#22c55e" stroke-width="2" stroke-linecap="round"/>
    <!-- Code lines -->
    <line x1="12" y1="12" x2="18" y2="12" stroke="#8b5cf6" stroke-width="1.5"/>
    <line x1="10" y1="15" x2="20" y2="15" stroke="#8b5cf6" stroke-width="1.5"/>
    <line x1="12" y1="18" x2="18" y2="18" stroke="#8b5cf6" stroke-width="1.5"/>
  </g>
  
  <!-- Features -->
  <g transform="translate(50, 140)">
    <circle cx="5" cy="5" r="2" fill="#22c55e"/>
    <text x="15" y="9" fill="#e2e8f0" font-family="Arial, sans-serif" font-size="12">Generación QR</text>
    
    <circle cx="5" cy="25" r="2" fill="#3b82f6"/>
    <text x="15" y="29" fill="#e2e8f0" font-family="Arial, sans-serif" font-size="12">Flask + Python</text>
    
    <circle cx="5" cy="45" r="2" fill="#8b5cf6"/>
    <text x="15" y="49" fill="#e2e8f0" font-family="Arial, sans-serif" font-size="12">API REST</text>
    
    <circle cx="5" cy="65" r="2" fill="#f97316"/>
    <text x="15" y="69" fill="#e2e8f0" font-family="Arial, sans-serif" font-size="12">Descarga PNG</text>
  </g>
  
  <!-- QR Generator interface -->
  <g transform="translate(280, 140)">
    <!-- Generator interface -->
    <rect x="10" y="10" width="50" height="50" fill="#1e293b" stroke="#8b5cf6" stroke-width="2" rx="5"/>
    <rect x="13" y="13" width="44" height="44" fill="#0f172a"/>
    
    <!-- Input field -->
    <rect x="15" y="15" width="40" height="8" fill="#374151" stroke="#8b5cf6" stroke-width="1" rx="2"/>
    <text x="35" y="20" text-anchor="middle" fill="#e2e8f0" font-family="Arial, sans-serif" font-size="6">Enter text or URL</text>
    
    <!-- Generated QR Code -->
    <rect x="20" y="28" width="30" height="25" fill="white" stroke="#8b5cf6" stroke-width="1" rx="2"/>
    
    <!-- QR pattern in generated code -->
    <rect x="22" y="30" width="3" height="3" fill="#000"/>
    <rect x="45" y="30" width="3" height="3" fill="#000"/>
    <rect x="22" y="48" width="3" height="3" fill="#000"/>
    
    <!-- Data dots -->
    <rect x="26" y="32" width="1" height="1" fill="#000"/>
    <rect x="28" y="32" width="1" height="1" fill="#000"/>
    <rect x="30" y="32" width="1" height="1" fill="#000"/>
    <rect x="32" y="32" width="1" height="1" fill="#000"/>
    <rect x="34" y="32" width="1" height="1" fill="#000"/>
    <rect x="36" y="32" width="1" height="1" fill="#000"/>
    <rect x="38" y="32" width="1" height="1" fill="#000"/>
    <rect x="40" y="32" width="1" height="1" fill="#000"/>
    <rect x="42" y="32" width="1" height="1" fill="#000"/>
    
    <rect x="24" y="34" width="1" height="1" fill="#000"/>
    <rect x="26" y="34" width="1" height="1" fill="#000"/>
    <rect x="30" y="34" width="1" height="1" fill="#000"/>
    <rect x="32" y="34" width="1" height="1" fill="#000"/>
    <rect x="36" y="34" width="1" height="1" fill="#000"/>
    <rect x="38" y="34" width="1" height="1" fill="#000"/>
    <rect x="42" y="34" width="1" height="1" fill="#000"/>
    <rect x="44" y="34" width="1" height="1" fill="#000"/>
    
    <rect x="24" y="36" width="1" height="1" fill="#000"/>
    <rect x="28" y="36" width="1" height="1" fill="#000"/>
    <rect x="30" y="36" width="1" height="1" fill="#000"/>
    <rect x="34" y="36" width="1" height="1" fill="#000"/>
    <rect x="36" y="36" width="1" height="1" fill="#000"/>
    <rect x="40" y="36" width="1" height="1" fill="#000"/>
    <rect x="42" y="36" width="1" height="1" fill="#000"/>
    
    <rect x="26" y="38" width="1" height="1" fill="#000"/>
    <rect x="28" y="38" width="1" height="1" fill="#000"/>
    <rect x="32" y="38" width="1" height="1" fill="#000"/>
    <rect x="34" y="38" width="1" height="1" fill="#000"/>
    <rect x="38" y="38" width="1" height="1" fill="#000"/>
    <rect x="40" y="38" width="1" height="1" fill="#000"/>
    <rect x="44" y="38" width="1" height="1" fill="#000"/>
    
    <rect x="24" y="40" width="1" height="1" fill="#000"/>
    <rect x="26" y="40" width="1" height="1" fill="#000"/>
    <rect x="30" y="40" width="1" height="1" fill="#000"/>
    <rect x="32" y="40" width="1" height="1" fill="#000"/>
    <rect x="36" y="40" width="1" height="1" fill="#000"/>
    <rect x="38" y="40" width="1" height="1" fill="#000"/>
    <rect x="42" y="40" width="1" height="1" fill="#000"/>
    
    <rect x="26" y="42" width="1" height="1" fill="#000"/>
    <rect x="30" y="42" width="1" height="1" fill="#000"/>
    <rect x="34" y="42" width="1" height="1" fill="#000"/>
    <rect x="36" y="42" width="1" height="1" fill="#000"/>
    <rect x="40" y="42" width="1" height="1" fill="#000"/>
    <rect x="42" y="42" width="1" height="1" fill="#000"/>
    <rect x="44" y="42" width="1" height="1" fill="#000"/>
    
    <rect x="24" y="44" width="1" height="1" fill="#000"/>
    <rect x="28" y="44" width="1" height="1" fill="#000"/>
    <rect x="30" y="44" width="1" height="1" fill="#000"/>
    <rect x="32" y="44" width="1" height="1" fill="#000"/>
    <rect x="36" y="44" width="1" height="1" fill="#000"/>
    <rect x="40" y="44" width="1" height="1" fill="#000"/>
    <rect x="44" y="44" width="1" height="1" fill="#000"/>
    
    <rect x="26" y="46" width="1" height="1" fill="#000"/>
    <rect x="28" y="46" width="1" height="1" fill="#000"/>
    <rect x="32" y="46" width="1" height="1" fill="#000"/>
    <rect x="34" y="46" width="1" height="1" fill="#000"/>
    <rect x="38" y="46" width="1" height="1" fill="#000"/>
    <rect x="40" y="46" width="1" height="1" fill="#000"/>
    <rect x="42" y="46" width="1" height="1" fill="#000"/>
    
    <!-- Download button -->
    <rect x="15" y="55" width="40" height="6" fill="#8b5cf6" rx="3"/>
    <text x="35" y="59" text-anchor="middle" fill="white" font-family="Arial, sans-serif" font-size="6" font-weight="bold">DOWNLOAD PNG</text>
  </g>
  
  <!-- Bottom decoration -->
  <rect x="50" y="250" width="300" height="3" fill="url(#bg-gradient)" rx="1.5"/>
  <!-- QR pattern decoration -->
  <rect x="80" y="260" width="2" height="2" fill="#8b5cf6" opacity="0.6"/>
  <rect x="84" y="260" width="2" height="2" fill="#7c3aed" opacity="0.6"/>
  <rect x="88" y="260" width="2" height="2" fill="#8b5cf6" opacity="0.6"/>
  <rect x="150" y="260" width="2" height="2" fill="#7c3aed" opacity="0.6"/>
  <rect x="154" y="260" width="2" height="2" fill="#8b5cf6" opacity="0.6"/>
  <rect x="158" y="260" width="2" height="2" fill="#7c3aed" opacity="0.6"/>
  <rect x="220" y="260" width="2" height="2" fill="#8b5cf6" opacity="0.6"/>
  <rect x="224" y="260" width="2" height="2" fill="#7c3aed" opacity="0.6"/>
  <rect x="228" y="260" width="2" height="2" fill="#8b5cf6" opacity="0.6"/>
  <rect x="290" y="260" width="2" height="2" fill="#7c3aed" opacity="0.6"/>
  <rect x="294" y="260" width="2" height="2" fill="#8b5cf6" opacity="0.6"/>
  <rect x="298" y="260" width="2" height="2" fill="#7c3aed" opacity="0.6"/>
</svg>